<?xml version="1.0" encoding="UTF-8" standalone="no"?>
<!-- Created with Inkscape (http://www.inkscape.org/) -->

<svg
   width="500mm"
   height="500mm"
   viewBox="0 0 500 500"
   version="1.1"
   id="svg5"
   xmlns="http://www.w3.org/2000/svg"
   xmlns:svg="http://www.w3.org/2000/svg">
  <defs
     id="defs2">
    <rect
       x="136.29678"
       y="141.44005"
       width="959.22072"
       height="900.07306"
       id="rect15704" />
    <rect
       x="126.01023"
       y="205.73098"
       width="820.3523"
       height="900.07306"
       id="rect4258" />
    <rect
       x="136.29678"
       y="141.44005"
       width="959.2207"
       height="900.07306"
       id="rect15704-1" />
  </defs>
  <g
     id="layer1">
    <text
       xml:space="preserve"
       transform="scale(0.26458333)"
       id="text4256"
       style="fill:black;stroke:none;stroke-opacity:1;stroke-width:1px;stroke-linejoin:miter;stroke-linecap:butt;fill-opacity:1;font-family:Sans;font-style:normal;font-weight:normal;font-size:40px;line-height:125%;letter-spacing:0px;word-spacing:0px;white-space:pre;shape-inside:url(#rect4258)" />
    <ellipse
       style="fill:#f7e018;fill-opacity:1;stroke:#b71919;stroke-width:0.264999;stroke-linejoin:round;stroke-opacity:0"
       id="path33452"
       cx="195.48372"
       cy="123.15465"
       rx="189.36002"
       ry="117.03093" />
    <path
       d="m 224.65524,158.24935 c 7.27814,11.88361 16.74716,20.6185 33.49431,20.6185 14.06875,0 23.05601,-7.03151 23.05601,-16.74714 0,-11.64272 -9.23387,-15.76641 -24.71925,-22.53983 l -8.48828,-3.64195 c -24.50132,-10.43829 -40.77818,-23.51482 -40.77818,-51.159101 0,-25.464851 19.4026,-44.850254 49.72529,-44.850254 21.58776,0 37.10754,7.513278 48.29143,27.185447 l -26.43984,16.976567 c -5.82136,-10.438294 -12.10155,-14.550522 -21.85159,-14.550522 -9.94507,0 -16.2482,6.308857 -16.2482,14.550522 0,10.18594 6.30888,14.309639 20.87659,20.618491 l 8.4883,3.6362 c 28.84867,12.3711 45.137,24.98308 45.137,53.33854 0,30.5693 -24.0138,47.31646 -56.26354,47.31646 -31.53282,0 -51.90471,-15.02657 -61.8727,-34.72168 z m -119.94288,2.94224 c 5.33387,9.46328 10.18595,17.46408 21.8516,17.46408 11.1552,0 18.19245,-4.36461 18.19245,-21.33543 V 41.868117 h 33.95313 V 157.77908 c 0,35.15755 -20.61276,51.1591 -50.70028,51.1591 -27.18546,0 -42.928919,-14.06877 -50.935434,-31.01379 z"
       id="path4"
       style="stroke-width:0.264583" />
    <ellipse
       style="fill:#3178c6;fill-opacity:1;stroke:#b71919;stroke-width:0.264999;stroke-linejoin:round;stroke-opacity:0"
       id="path33452-7"
       cx="302.78351"
       cy="376.26804"
       rx="189.36002"
       ry="117.03093" />
    <path
       clip-rule="evenodd"
       d="m 319.35408,410.52018 v 33.86583 c 5.50529,2.82235 12.01651,4.93839 19.53369,6.34955 7.51717,1.41116 15.43958,2.11676 23.76853,2.11676 8.11724,0 15.82789,-0.77594 23.13333,-2.32849 7.30542,-1.55186 13.71112,-4.10967 19.21641,-7.67276 5.50528,-3.56241 9.86392,-8.21938 13.07524,-13.96956 3.21128,-5.75018 4.81727,-12.85809 4.81727,-21.32438 0,-6.13848 -0.91731,-11.51792 -2.75264,-16.13904 -1.83532,-4.62111 -4.48175,-8.73079 -7.94063,-12.32905 -3.45823,-3.59826 -7.60514,-6.82648 -12.44003,-9.68398 -4.83486,-2.85749 -10.2874,-5.55604 -16.35755,-8.09557 -4.44659,-1.83464 -8.4345,-3.61585 -11.96377,-5.34429 -3.52925,-1.7291 -6.52883,-3.49271 -8.99938,-5.29152 -2.47053,-1.79946 -4.3762,-3.70447 -5.71702,-5.71499 -1.3408,-2.01122 -2.01188,-4.28625 -2.01188,-6.82648 0,-2.3278 0.60006,-4.42696 1.80014,-6.29678 1.2001,-1.86982 2.89402,-3.47446 5.08181,-4.81528 2.18844,-1.34014 4.87005,-2.38124 8.04618,-3.122 3.17683,-0.74077 6.70538,-1.11078 10.58778,-1.11078 2.82299,0 5.80498,0.2117 8.94594,0.63452 3.14094,0.42348 6.29948,1.07632 9.47628,1.95778 3.17612,0.88215 6.26364,1.99362 9.26389,3.33375 2.99955,1.34081 5.76979,2.89267 8.31067,4.65697 v -31.64356 c -5.15213,-1.97538 -10.78122,-3.43929 -16.88657,-4.3918 -6.10532,-0.95249 -13.11109,-1.42876 -21.01587,-1.42876 -8.04688,0 -15.6696,0.86457 -22.86883,2.59301 -7.19921,1.72843 -13.53388,4.42695 -19.00468,8.09558 -5.4701,3.66928 -9.79287,8.34317 -12.969,14.02299 -3.17613,5.67913 -4.76453,12.46975 -4.76453,20.37186 0,10.08921 2.91161,18.69686 8.73486,25.82302 5.82257,7.1255 14.66295,13.15777 26.52116,18.09683 4.65832,1.90501 8.99937,3.77414 13.02247,5.60878 4.02311,1.83466 7.49961,3.73966 10.42814,5.71501 2.92919,1.97537 5.24075,4.1273 6.93539,6.45576 1.69392,2.3278 2.54089,4.97357 2.54089,7.93728 0,2.18711 -0.5297,4.21523 -1.5884,6.08506 -1.0587,1.86979 -2.66471,3.49203 -4.81729,4.86803 -2.15259,1.37598 -4.83491,2.45159 -8.04619,3.22751 -3.21201,0.77664 -6.96991,1.16425 -11.27577,1.16425 -7.34063,0 -14.6102,-1.28735 -21.8101,-3.86276 -7.19923,-2.57472 -13.86943,-6.43749 -20.00994,-11.5883 z m -56.93285,-83.43981 h 43.44428 V 299.28874 H 184.77354 v 27.79163 h 43.23186 v 123.74248 h 34.41583 z"
       fill="#ffffff"
       fill-rule="evenodd"
       id="path6"
       style="stroke-width:0.264583" />
    <rect
       style="fill:#0035fa;fill-opacity:1;stroke:#b71919;stroke-width:0.264999;stroke-linejoin:round;stroke-opacity:0"
       id="rect34014"
       width="398.0412"
       height="13.60823"
       x="5.0921626"
       y="283.44089"
       rx="12.09349"
       ry="8.1649408"
       transform="rotate(-10)" />
  </g>
</svg>
